<svg width="44" height="51" viewBox="0 0 44 51" fill="none" xmlns="http://www.w3.org/2000/svg">
<path d="M13.1078 46.3991C14.3003 49.1057 16.999 50.9999 20.1316 50.9999C23.2642 50.9999 25.9628 49.1057 27.1554 46.3991H13.1078Z" fill="white"/>
<path d="M20.1311 4.87244C22.1983 4.87244 24.1831 5.23861 26.0251 5.90899V5.6812C26.0251 2.5485 23.4865 -0.00012207 20.3661 -0.00012207H19.8971C16.7767 -0.00012207 14.238 2.5485 14.238 5.6812V5.90609C16.079 5.23771 18.0633 4.87244 20.1311 4.87244Z" fill="white"/>
<path fill-rule="evenodd" clip-rule="evenodd" d="M34.7605 27.723C28.3596 27.4195 23.2632 22.1338 23.2632 15.6578C23.2632 13.1339 24.0374 10.7907 25.3612 8.85281C23.7393 8.2156 21.9751 7.86566 20.1311 7.86566C12.1949 7.86566 5.73825 14.3475 5.73825 22.3149C5.73825 26.7307 5.30375 32.9162 3.23369 37.3072C2.10658 39.6983 0.980767 40.4886 0.831195 40.586C0.200905 40.8784 -0.109768 41.5538 0.035133 42.2382C0.181525 42.9294 0.826225 43.4059 1.53006 43.4059H38.7331C39.437 43.4059 40.0816 42.9293 40.228 42.2382C40.373 41.5537 40.0622 40.8784 39.4319 40.586C39.2823 40.4887 38.1566 39.6983 37.0294 37.3072C35.7201 34.5298 35.0651 31.0344 34.7605 27.723Z" fill="white"/>
<circle cx="35.3422" cy="15.6578" r="8.5" fill="white"/>
</svg>
