<svg width="50" height="52" viewBox="0 0 50 52" fill="none" xmlns="http://www.w3.org/2000/svg">
<path d="M49.51 43.2911L39.5588 33.3395L46.6582 29.2388C47.213 28.9184 47.5358 28.3094 47.4896 27.6705C47.4435 27.0314 47.0364 26.4749 46.4414 26.2377L14.7835 13.6093C14.1629 13.3614 13.4543 13.5074 12.9816 13.9798C12.509 14.4526 12.3631 15.1611 12.6107 15.7817L25.2371 47.4433C25.4745 48.0383 26.031 48.4456 26.6701 48.4917C27.3092 48.5382 27.9183 48.2152 28.2386 47.6603L32.3389 40.5608L42.2895 50.5124C42.603 50.8261 43.0286 51.0023 43.4719 51.0023C43.9156 51.0023 44.3409 50.8261 44.6544 50.5124L49.5102 45.6559C50.1631 45.0028 50.1631 43.9441 49.51 43.2911Z" fill="white"/>
<path d="M7.33981 5.97346C6.68678 5.32094 5.62836 5.32077 4.975 5.97346C4.32214 6.62649 4.32214 7.68525 4.975 8.33828L8.69031 12.0536C9.01674 12.38 9.44452 12.5433 9.87263 12.5433C10.3004 12.5433 10.7284 12.38 11.0548 12.0536C11.7078 11.4006 11.7078 10.342 11.0548 9.68895L7.33981 5.97346Z" fill="white"/>
<path d="M8.59864 17.5337C8.59864 16.6105 7.84998 15.8617 6.92642 15.8617H1.67222C0.74882 15.8617 0 16.6103 0 17.5337C0 18.4571 0.748652 19.206 1.67222 19.206H6.92642C7.84998 19.2058 8.59864 18.4571 8.59864 17.5337Z" fill="white"/>
<path d="M7.9208 22.6949L4.20498 26.4105C3.55212 27.0636 3.55212 28.1223 4.20498 28.7752C4.53158 29.1016 4.95952 29.2649 5.3873 29.2649C5.81508 29.2649 6.24319 29.1016 6.56962 28.7752L10.2853 25.0597C10.9383 24.4067 10.9383 23.3479 10.2853 22.6949C9.63241 22.0424 8.57416 22.0422 7.9208 22.6949Z" fill="white"/>
<path d="M16.5346 9.5969C17.458 9.5969 18.2068 8.84825 18.2068 7.92468V2.66998C18.2068 1.74658 17.4582 0.997925 16.5346 0.997925C15.6114 0.997925 14.8625 1.74641 14.8625 2.66998V7.92485C14.8625 8.84825 15.6112 9.5969 16.5346 9.5969Z" fill="white"/>
<path d="M22.8774 11.7736C23.3055 11.7736 23.7333 11.6103 24.0597 11.2839L27.7749 7.56856C28.4279 6.91553 28.4279 5.85678 27.7749 5.20375C27.1219 4.55106 26.0631 4.55106 25.4102 5.20375L21.6951 8.91923C21.0421 9.57226 21.0421 10.631 21.6951 11.2839C22.0217 11.6103 22.4495 11.7736 22.8774 11.7736Z" fill="white"/>
</svg>
