<svg width="38" height="55" viewBox="0 0 38 55" fill="none" xmlns="http://www.w3.org/2000/svg">
<path fill-rule="evenodd" clip-rule="evenodd" d="M3.45455 0H34.5455C36.4524 0 38 1.54344 38 3.4375V51.5625C38 53.46 36.4524 55 34.5455 55H3.45455C1.55109 55 0 53.46 0 51.5625V3.4375C0 1.54344 1.55109 0 3.45455 0ZM34.5109 44.6875H34.5455V6.875H3.45455V6.90938H3.42V44.7219H34.5109V44.6875ZM19.4323 52.486C20.9655 52.486 22.2084 51.2493 22.2084 49.7236C22.2084 48.198 20.9655 46.9612 19.4323 46.9612C17.8991 46.9612 16.6562 48.198 16.6562 49.7236C16.6562 51.2493 17.8991 52.486 19.4323 52.486Z" fill="white"/>
<path d="M15.5126 13.75H8.60349C7.65004 13.75 6.87622 14.52 6.87622 15.4687V22.3437C6.87622 23.2925 7.65004 24.0625 8.60349 24.0625H15.5126C16.466 24.0625 17.2399 23.2925 17.2399 22.3437V15.4687C17.2399 14.52 16.466 13.75 15.5126 13.75ZM13.7853 20.625H10.3308V17.1875H13.7853V20.625Z" fill="white"/>
<path d="M29.329 13.75H22.4199C21.4664 13.75 20.6926 14.52 20.6926 15.4687V22.3437C20.6926 23.2925 21.4664 24.0625 22.4199 24.0625H29.329C30.2824 24.0625 31.0563 23.2925 31.0563 22.3437V15.4687C31.0563 14.52 30.2824 13.75 29.329 13.75ZM27.6017 20.625H24.1472V17.1875H27.6017V20.625Z" fill="white"/>
<path d="M15.5126 27.4998H8.60349C7.65004 27.4998 6.87622 28.2698 6.87622 29.2185V36.0935C6.87622 37.0422 7.65004 37.8122 8.60349 37.8122H15.5126C16.466 37.8122 17.2399 37.0422 17.2399 36.0935V29.2185C17.2399 28.2698 16.466 27.4998 15.5126 27.4998ZM13.7853 34.3748H10.3308V30.9373H13.7853V34.3748Z" fill="white"/>
<path d="M24.1472 27.4998H20.6926V30.9373H24.1472V27.4998Z" fill="white"/>
<path d="M27.6035 30.9375V34.375H24.1489V37.8125H29.3307C30.2842 37.8125 31.058 37.0425 31.058 36.0938V30.9375H27.6035Z" fill="white"/>
</svg>
