<svg width="52" height="52" viewBox="0 0 52 52" fill="none" xmlns="http://www.w3.org/2000/svg">
<path d="M50.9166 49.8334H49.8333V18.4166C49.8333 17.8186 49.3479 17.3333 48.7499 17.3333H42.2499C41.6519 17.3333 41.1665 17.8186 41.1665 18.4166V49.8333H36.8332V31.4166C36.8332 30.8186 36.3478 30.3333 35.7498 30.3333H29.2498C28.6518 30.3333 28.1664 30.8186 28.1664 31.4166V49.8333H23.8331V27.0833C23.8331 26.4853 23.3477 25.9999 22.7497 25.9999H16.2497C15.6517 25.9999 15.1663 26.4853 15.1663 27.0833V49.8333H10.833V37.9166C10.833 37.3186 10.3476 36.8333 9.74959 36.8333H3.25C2.652 36.8333 2.16663 37.3186 2.16663 37.9166V49.8333H1.08337C0.485367 49.8334 0 50.3186 0 50.9166C0 51.5146 0.485367 52 1.08337 52H3.25H9.75H16.25H22.75H29.25H35.75H42.25H48.75H50.9166C51.5146 52 52 51.5146 52 50.9166C52 50.3186 51.5146 49.8334 50.9166 49.8334Z" fill="white"/>
<path d="M45.4999 0C43.11 0 41.1665 1.9435 41.1665 4.33337C41.1665 5.135 41.4005 5.876 41.7796 6.52173L34.6881 13.6132C34.0425 13.234 33.3015 13 32.4999 13C31.1414 13 29.941 13.6414 29.1459 14.6229L23.8224 13.104C23.8224 13.0694 23.8332 13.0369 23.8332 13C23.8332 10.6101 21.8897 8.66663 19.4999 8.66663C17.11 8.66663 15.1665 10.6101 15.1665 13C15.1665 13.6305 15.3074 14.2241 15.55 14.7636L8.77914 20.1651C8.11624 19.7491 7.33837 19.5 6.49987 19.5C4.11 19.5 2.1665 21.4435 2.1665 23.8334C2.1665 26.2232 4.11 28.1667 6.49987 28.1667C8.88974 28.1667 10.8332 26.2232 10.8332 23.8334C10.8332 23.0729 10.6187 22.3665 10.2721 21.7447L16.9086 16.4516C17.6345 16.9976 18.525 17.3335 19.5 17.3335C21.0881 17.3335 22.4661 16.4646 23.2201 15.1863L28.2402 16.6185C28.1991 16.8525 28.1666 17.0886 28.1666 17.3335C28.1666 19.7233 30.1101 21.6668 32.5 21.6668C34.8898 21.6668 36.8333 19.7233 36.8333 17.3335C36.8333 16.5318 36.5993 15.7908 36.2202 15.1451L43.3138 8.05147C43.9573 8.43284 44.6983 8.66683 45.5 8.66683C47.8898 8.66683 49.8333 6.72334 49.8333 4.33347C49.8332 1.9435 47.8897 0 45.4999 0Z" fill="white"/>
</svg>
