<svg width="50" height="50" viewBox="0 0 50 50" fill="none" xmlns="http://www.w3.org/2000/svg">
<path d="M45.4545 0H4.54548C2.0397 0 0 2.03853 0 4.54548V45.4545C0 47.9614 2.0397 50 4.54548 50H45.4545C47.9603 50 50 47.9615 50 45.4545V4.54548C49.9999 2.03853 47.9603 0 45.4545 0ZM14.7727 4.54548C15.4003 4.54548 15.9091 5.05418 15.9091 5.68188C15.9091 6.30947 15.4003 6.81828 14.7727 6.81828C14.1452 6.81828 13.6363 6.30937 13.6363 5.68177C13.6363 5.05408 14.1452 4.54548 14.7727 4.54548ZM10.2273 4.54548C10.8548 4.54548 11.3637 5.05418 11.3637 5.68188C11.3637 6.30937 10.8548 6.81817 10.2273 6.81817C9.59967 6.81817 9.09086 6.30937 9.09086 5.68177C9.09086 5.05408 9.59967 4.54548 10.2273 4.54548ZM5.68177 4.54548C6.30937 4.54548 6.81817 5.05408 6.81817 5.68177C6.81817 6.30937 6.30937 6.81817 5.68177 6.81817C5.05418 6.81817 4.54538 6.30937 4.54538 5.68177C4.54548 5.05408 5.05429 4.54548 5.68177 4.54548ZM45.4545 45.4545H4.54548V11.3637H45.4545V45.4545Z" fill="white"/>
</svg>
