<svg width="21" height="15" viewBox="0 0 21 15" fill="none" xmlns="http://www.w3.org/2000/svg">
<path d="M20.6334 6.64373L20.6322 6.64258L14.1007 0.352254C13.6114 -0.118976 12.82 -0.117222 12.3329 0.356367C11.8459 0.829895 11.8478 1.5958 12.3371 2.06709L16.7224 6.29032H1.25C0.559624 6.29032 0 6.83189 0 7.5C0 8.16811 0.559624 8.70968 1.25 8.70968H16.7223L12.3372 12.9329C11.8479 13.4042 11.846 14.1701 12.333 14.6436C12.8201 15.1173 13.6116 15.1189 14.1008 14.6477L20.6323 8.35742L20.6334 8.35627C21.123 7.88341 21.1214 7.11502 20.6334 6.64373Z" fill="#5696FF"/>
</svg>
