<svg width="48" height="46" viewBox="0 0 48 46" fill="none" xmlns="http://www.w3.org/2000/svg">
<path d="M36.5157 45.9999C35.9158 45.9999 35.3138 45.8557 34.7586 45.5636L24.4288 40.1291C24.1604 39.9881 23.84 39.9881 23.5715 40.1291L13.2414 45.5636C11.9798 46.2274 10.4743 46.1282 9.31234 45.3051C8.12874 44.4673 7.54536 43.0623 7.78963 41.6386L9.76241 30.1284C9.81698 29.8105 9.71297 29.4878 9.48482 29.265L1.1275 21.1138C0.0973432 20.1087 -0.260446 18.6381 0.193657 17.2753C0.642633 15.928 1.79913 14.9636 3.21161 14.7581L14.7608 13.0788C15.0644 13.0348 15.3285 12.8409 15.4669 12.56L20.6323 2.08781C21.2673 0.800007 22.5579 0 24 0C25.4421 0 26.7327 0.800007 27.3681 2.08781L32.5331 12.56C32.6715 12.8405 32.9356 13.0348 33.2392 13.0788L44.7884 14.7581C46.2009 14.9636 47.3574 15.928 47.8063 17.2753C48.2604 18.6378 47.9027 20.1087 46.8725 21.1135L38.5152 29.265C38.287 29.4878 38.183 29.8105 38.2376 30.1281L40.2104 41.6382C40.4546 43.062 39.8713 44.4669 38.6877 45.3051C38.0373 45.7659 37.2785 45.9999 36.5157 45.9999Z" fill="white"/>
</svg>
