<svg width="30" height="36" viewBox="0 0 30 36" fill="none" xmlns="http://www.w3.org/2000/svg">
<path d="M12.5652 33.3963C12.5421 33.2531 12.5315 33.1082 12.5334 32.9632L12.5334 8.27136L12.2852 8.80977C12.0383 9.33605 11.7023 9.81483 11.2923 10.2247L4.42955 17.1489C3.56674 18.0608 2.17875 18.214 1.14087 17.512C0.0349003 16.6949 -0.205235 15.1279 0.604602 14.012C0.670065 13.9218 0.741423 13.8362 0.818211 13.7556L13.2283 1.23447C14.1971 0.255936 15.7686 0.255075 16.7384 1.23251C16.7391 1.23313 16.7398 1.23384 16.7404 1.23447L29.1505 13.7556C30.1184 14.7349 30.1162 16.3205 29.1456 17.2972C29.0692 17.374 28.9879 17.4458 28.9023 17.512C27.8644 18.214 26.4764 18.0608 25.6136 17.1489L18.7384 10.2372C18.3739 9.86976 18.0682 9.44733 17.8325 8.98507L17.4974 8.2338L17.4974 32.8254C17.5445 34.1046 16.6588 35.227 15.4125 35.4673C14.0594 35.6887 12.7847 34.7615 12.5652 33.3963Z" fill="white"/>
</svg>
